<?xml version="1.0" standalone="no"?>
<!DOCTYPE svg PUBLIC "-//W3C//DTD SVG 20010904//EN"
 "http://www.w3.org/TR/2001/REC-SVG-20010904/DTD/svg10.dtd">
<svg version="1.0" xmlns="http://www.w3.org/2000/svg"
 width="800.000000pt" height="800.000000pt" viewBox="0 0 800.000000 800.000000"
 preserveAspectRatio="xMidYMid meet">

<g transform="translate(0.000000,800.000000) scale(0.100000,-0.100000)"
fill="#000000" stroke="none">
<path d="M5589 7634 c-12 -15 -14 -161 -16 -998 0 -540 -2 -1096 -4 -1236 -2
-140 1 -266 5 -280 15 -45 56 -79 56 -46 0 22 39 27 50 6 5 -9 8 -19 6 -21 -2
-2 -7 -49 -11 -104 -4 -55 -9 -103 -11 -106 -1 -3 4 -25 12 -48 13 -37 13 -46
1 -60 -16 -19 -23 -97 -9 -114 27 -34 31 -179 7 -207 -15 -16 -15 -18 -15 -55
0 -16 -6 -25 -15 -25 -11 0 -15 12 -15 53 0 28 -7 92 -16 140 -13 70 -14 94
-5 111 8 14 9 30 3 46 -5 14 -7 32 -4 40 5 13 3 13 -10 0 -31 -32 -38 -57 -31
-126 7 -68 8 -223 3 -319 -2 -40 4 -200 9 -239 2 -13 31 14 31 29 0 7 6 18 13
24 26 21 63 -42 48 -82 -6 -15 -4 -36 4 -61 7 -21 13 -79 14 -129 0 -51 1
-103 2 -117 2 -14 2 -73 1 -131 l-2 -106 -37 -7 c-39 -6 -726 10 -821 20 l-53
6 6 91 c3 50 10 94 16 98 6 4 13 30 15 58 3 39 13 65 44 112 22 33 40 69 40
79 0 11 9 24 20 30 11 6 20 16 20 23 0 7 9 29 20 50 11 20 20 45 20 55 0 10 4
22 9 27 12 13 40 99 52 160 16 81 37 206 44 263 4 33 12 52 20 52 14 0 65 56
65 71 0 6 -4 8 -9 5 -5 -3 -11 4 -14 15 -7 26 3 90 13 84 9 -6 18 53 30 193 5
53 14 151 21 217 16 162 8 219 -39 277 -20 25 -49 52 -63 60 -19 11 -28 27
-32 54 -4 22 -11 66 -17 99 -5 33 -14 139 -20 235 -5 96 -14 211 -20 255 -6
44 -13 111 -16 150 -3 38 -9 74 -14 80 -5 7 -11 38 -12 70 -2 49 -7 64 -30 87
-26 27 -31 41 -43 138 -3 25 -14 59 -25 75 -11 17 -20 39 -20 50 0 11 -9 31
-20 45 -11 14 -20 34 -20 46 0 26 -94 124 -119 124 -10 0 -22 7 -25 15 -3 9
-20 23 -38 31 -67 32 -78 39 -78 52 0 7 -11 17 -25 22 -14 5 -25 17 -25 28 0
10 -22 39 -49 65 -46 44 -83 59 -95 38 -4 -5 -23 -5 -46 1 -30 8 -42 17 -46
35 -7 26 -59 59 -69 43 -3 -6 1 -10 10 -10 9 0 13 -4 10 -10 -14 -22 -34 -8
-51 35 -9 25 -21 45 -26 45 -5 0 -4 -10 3 -21 6 -12 7 -19 1 -15 -5 3 -15 19
-22 36 -8 20 -19 30 -34 30 -12 0 -28 6 -35 13 -10 10 -11 9 -6 -5 4 -11 2
-18 -4 -18 -6 0 -11 10 -11 21 0 21 -3 21 -69 15 -48 -5 -76 -3 -89 5 -16 10
-35 9 -98 -6 -44 -11 -96 -19 -116 -19 -20 0 -32 -3 -27 -7 21 -13 -30 -21
-186 -30 -168 -9 -205 -15 -205 -31 0 -6 -14 -8 -35 -5 -19 3 -35 2 -35 -4 0
-5 -8 -8 -17 -7 -47 4 -114 -3 -109 -11 6 -9 -109 -71 -130 -71 -5 0 -24 -16
-41 -35 -18 -19 -39 -35 -48 -35 -8 0 -15 -4 -15 -9 0 -5 -10 -13 -22 -17 -32
-10 -88 -54 -88 -69 0 -7 -14 -18 -31 -25 -17 -7 -37 -23 -46 -36 -8 -13 -25
-26 -36 -30 -12 -3 -38 -23 -59 -43 -20 -20 -41 -40 -47 -46 -6 -5 -23 -25
-37 -42 -14 -18 -31 -33 -37 -33 -7 0 -20 -12 -29 -28 -10 -15 -38 -54 -62
-87 -125 -168 -151 -212 -161 -274 -4 -24 -14 -60 -22 -80 -15 -34 -29 -102
-54 -255 -18 -112 -7 -412 20 -521 63 -260 63 -260 17 -275 -40 -13 -112 -105
-122 -157 -12 -62 3 -264 22 -313 10 -25 21 -50 26 -56 4 -6 22 -37 39 -70 17
-32 42 -80 56 -106 18 -34 32 -48 52 -53 22 -5 30 -13 35 -36 4 -22 14 -33 36
-40 32 -12 38 -27 18 -47 -16 -16 -6 -23 49 -33 53 -10 130 -3 152 15 7 6 22
31 33 55 l19 45 19 -30 c11 -16 20 -34 20 -40 0 -5 8 -19 18 -30 9 -10 26 -36
37 -56 11 -21 23 -38 27 -38 5 0 8 -6 8 -12 0 -7 11 -26 25 -43 21 -26 24 -28
26 -10 1 19 21 -41 39 -115 4 -19 17 -61 29 -92 12 -32 21 -67 21 -78 0 -12 9
-30 20 -42 11 -12 20 -31 20 -42 1 -12 12 -41 25 -66 13 -25 40 -76 59 -115
20 -38 52 -99 72 -134 24 -44 34 -73 31 -90 -3 -14 -1 -34 4 -43 5 -9 10 -35
12 -57 1 -22 6 -43 10 -47 4 -4 7 -19 7 -34 0 -14 5 -31 11 -37 8 -8 8 -17 1
-30 -8 -13 -7 -22 5 -35 19 -21 11 -34 -27 -42 -17 -3 -29 -10 -25 -16 8 -13
-52 13 -76 33 -16 14 -19 31 -20 94 -1 80 -5 145 -14 200 l-6 31 -122 6 c-270
13 -739 27 -1144 36 -235 5 -517 14 -626 20 -178 11 -203 10 -252 -5 -38 -12
-56 -24 -61 -39 -4 -11 -19 -46 -34 -77 -30 -64 -32 -93 -46 -701 -7 -278 -6
-298 10 -298 10 0 26 5 37 10 10 6 19 7 19 3 0 -13 -96 -55 -134 -60 -19 -2
-47 -10 -63 -18 -15 -8 -40 -15 -54 -15 -31 0 -133 -40 -181 -72 -20 -13 -44
-35 -54 -50 -11 -16 -24 -28 -30 -28 -6 0 -28 -15 -50 -33 -21 -18 -51 -40
-66 -50 -14 -9 -28 -27 -30 -39 -2 -15 -9 -22 -21 -22 -16 2 -17 -34 -17 -622
l0 -624 248 -1 c136 -1 265 -3 287 -5 75 -8 787 -9 798 -2 9 6 9 8 0 8 -13 0
-7 107 7 125 9 11 15 40 32 143 6 35 12 62 14 60 17 -18 11 -109 -21 -303 l-5
-30 60 -3 c58 -2 60 -1 60 23 0 14 5 25 10 25 6 0 10 -11 10 -25 l0 -25 393 2
c494 2 581 6 569 21 -6 7 -7 59 -2 132 4 66 6 123 3 128 -2 4 5 7 17 7 21 0
21 -3 18 -140 l-3 -140 28 0 27 0 1 143 c1 80 4 129 8 112 4 -16 6 -81 5 -142
l-2 -113 141 1 c173 1 166 2 140 -16 -13 -9 -55 -16 -117 -19 -52 -2 -99 -7
-104 -10 -11 -6 -121 -7 -372 -2 -102 2 -231 1 -287 -2 -92 -4 -103 -7 -103
-23 0 -14 7 -19 29 -19 16 0 31 5 33 10 2 8 20 7 56 -1 67 -14 272 -16 617 -6
149 4 479 10 734 13 255 3 468 7 472 10 5 3 82 7 171 10 90 2 188 6 218 8 30
2 123 7 205 11 83 4 166 8 185 10 19 2 68 7 108 10 64 6 71 9 60 23 -10 12
-10 16 -1 19 7 3 17 22 23 44 10 37 30 54 30 25 0 -19 55 -43 115 -50 28 -4
162 -6 298 -6 154 1 253 -3 261 -9 28 -23 510 -31 1126 -17 184 4 375 8 423 9
66 2 90 6 97 17 8 12 10 12 10 1 0 -9 7 -11 22 -8 12 4 29 1 37 -6 12 -10 13
-9 7 1 -6 10 -1 11 21 6 15 -4 30 -11 31 -16 2 -4 8 -8 14 -8 6 0 8 6 5 13 -3
9 46 12 230 12 128 -1 239 3 246 7 6 4 8 8 2 8 -5 0 -3 5 5 10 8 5 68 10 133
10 l117 0 0 159 c0 118 -3 161 -12 164 -10 4 -10 6 0 6 6 1 12 8 12 16 0 10
-11 15 -37 16 -46 2 -53 3 -76 13 -10 5 -33 6 -52 3 -19 -3 -37 -1 -41 4 -4 6
-10 6 -19 -1 -24 -20 -45 16 -45 78 0 79 -35 304 -60 382 -11 36 -20 75 -20
86 0 26 -83 196 -105 214 -18 15 -19 3 -5 -35 8 -20 7 -26 -2 -23 -22 8 -58
82 -58 121 0 31 -7 45 -40 77 -23 22 -45 40 -50 40 -4 0 -29 16 -54 35 -26 19
-50 35 -54 35 -4 0 -20 11 -36 25 -17 14 -40 28 -53 31 -13 4 -23 11 -23 16 0
6 -21 8 -47 6 -42 -3 -48 0 -51 17 -3 20 -51 50 -117 73 -16 5 -61 23 -100 40
-114 49 -280 112 -296 112 -18 0 -86 24 -95 33 -4 4 -15 7 -24 7 -9 0 -25 7
-36 15 -15 12 -16 16 -5 24 7 4 124 7 260 5 135 -2 467 -6 736 -9 270 -3 497
-6 505 -7 8 -1 34 0 58 0 l42 2 0 120 0 120 -117 2 c-261 5 -303 4 -303 -11 0
-10 -8 -12 -32 -7 -38 8 -220 25 -361 33 -71 4 -106 2 -123 -8 -20 -10 -49
-10 -162 0 -75 8 -195 15 -267 17 -71 1 -133 3 -137 3 -13 1 -9 28 9 65 l16
35 191 -5 c212 -6 376 -5 389 3 5 3 6 22 2 42 -3 21 -6 57 -7 81 0 23 -4 37
-8 31 -5 -9 -10 -8 -20 4 -7 8 -9 15 -4 15 4 0 -2 9 -14 20 -29 28 -38 25 -17
-6 9 -14 14 -28 11 -32 -3 -3 -6 0 -6 6 0 7 -6 12 -14 12 -8 0 -16 7 -20 15
-9 26 -26 17 -26 -14 0 -20 6 -31 18 -34 10 -3 6 -5 -11 -6 -22 -1 -31 -10
-50 -48 -27 -58 -55 -67 -91 -28 -13 14 -22 33 -19 43 3 12 -12 29 -47 56
l-51 39 -27 -25 c-15 -14 -37 -29 -49 -33 -13 -3 -23 -10 -23 -15 0 -5 -14
-11 -30 -15 -17 -4 -28 -11 -24 -16 3 -5 0 -9 -5 -9 -15 0 -14 20 3 67 8 22
17 74 21 116 7 73 27 115 43 91 4 -5 20 -17 35 -27 15 -10 32 -28 38 -40 10
-22 51 -47 77 -47 11 0 11 3 -1 15 -10 10 -14 28 -11 57 6 56 -4 98 -22 98 -8
0 -14 5 -14 10 0 20 -21 9 -32 -17 -7 -16 -13 -29 -14 -31 -3 -5 -84 79 -101
105 -8 12 -24 23 -34 23 -26 0 -32 17 -12 30 17 11 17 11 0 6 -11 -3 -31 2
-45 12 -15 10 -39 24 -54 32 -34 16 -35 22 -6 35 40 18 71 122 46 153 -8 9 -8
16 0 24 7 7 12 21 12 31 0 17 -5 18 -36 12 -62 -11 -88 -54 -98 -157 -2 -25
-9 -56 -15 -67 -10 -18 -42 -173 -44 -208 0 -8 -15 -13 -39 -13 -32 0 -44 6
-70 36 l-31 35 -31 -30 c-31 -30 -75 -44 -60 -20 5 8 -6 10 -37 5 -53 -7 -64
-1 -65 39 -1 17 -7 59 -13 95 -14 86 -14 153 1 168 9 9 8 15 -7 25 -28 21 -9
40 21 21 21 -14 24 -24 24 -75 0 -50 5 -67 33 -109 22 -34 39 -49 55 -49 12
-1 22 0 22 2 -1 1 -10 38 -22 82 -12 47 -20 103 -19 135 6 131 5 195 -7 360
-14 199 -16 207 -43 215 -16 5 -19 16 -20 63 0 31 -1 71 -1 87 0 17 1 69 2
118 2 78 4 87 21 87 16 0 19 -8 19 -55 0 -30 -4 -55 -10 -55 -5 0 -10 -9 -10
-20 0 -11 4 -20 9 -20 5 0 13 -10 17 -22 10 -34 31 -51 38 -33 3 8 11 15 18
15 7 0 25 11 40 25 15 14 36 25 47 25 14 0 23 -9 27 -25 7 -28 18 -31 57 -12
23 10 27 18 27 52 0 22 4 55 9 73 6 20 6 30 0 27 -13 -9 -11 17 4 36 15 19 77
50 87 44 23 -14 90 239 90 341 0 21 6 59 14 84 l13 45 179 -2 c201 -1 330 -10
357 -24 9 -6 22 -7 27 -4 9 5 13 -13 25 -110 4 -27 14 -75 22 -105 32 -117 51
-198 62 -265 7 -38 15 -81 18 -95 4 -14 5 -29 4 -34 -1 -5 6 -43 15 -85 18
-87 29 -165 46 -341 12 -129 6 -200 -15 -200 -18 0 -37 58 -37 112 0 26 -3 53
-6 62 -8 20 -44 21 -44 1 0 -9 -7 -27 -16 -41 -14 -20 -15 -29 -5 -51 8 -17 9
-28 2 -32 -6 -4 -7 -28 -2 -66 5 -32 6 -66 4 -76 -12 -46 60 -86 110 -61 12 6
35 13 50 17 23 5 27 8 17 20 -6 8 -9 19 -5 25 4 6 -1 20 -10 30 -34 38 14 67
65 40 21 -11 24 -5 35 75 4 28 11 58 16 68 7 13 6 19 -6 23 -11 5 -6 11 20 26
31 16 48 18 111 12 42 -4 82 -13 89 -20 8 -8 15 -10 17 -4 2 7 14 6 34 -2 22
-8 35 -22 45 -47 7 -20 12 -40 11 -44 -1 -5 2 -5 8 -2 6 4 22 -5 35 -19 21
-23 32 -26 88 -26 34 0 68 -5 74 -11 7 -7 19 -9 27 -6 13 5 16 26 16 114 l0
108 -49 18 c-46 16 -129 73 -130 89 -2 19 115 30 157 15 l22 -8 0 1543 c0
1463 -1 1544 -17 1544 -10 1 -65 7 -123 13 -183 21 -301 31 -445 41 -77 5
-185 14 -240 20 -55 5 -174 17 -265 25 -91 8 -178 18 -195 21 -16 4 -97 10
-180 14 -82 5 -274 23 -425 40 -151 18 -327 35 -391 37 -101 4 -117 2 -130
-13z m-1474 -214 c3 -5 1 -10 -4 -10 -6 0 -11 5 -11 10 0 6 2 10 4 10 3 0 8
-4 11 -10z m3195 -1035 c124 -4 229 -10 233 -15 20 -19 27 -100 27 -332 0
-192 -3 -248 -12 -248 -7 0 -35 7 -63 15 -27 9 -72 15 -100 15 -27 0 -88 4
-135 9 -47 5 -92 10 -100 11 -12 0 -11 3 3 11 15 9 17 27 17 139 0 72 -3 131
-7 131 -5 1 -59 3 -121 4 -90 2 -116 0 -128 -13 -12 -12 -15 -39 -13 -141 1
-103 -1 -125 -12 -123 -8 2 -18 8 -24 13 -13 13 -14 521 0 531 5 4 54 5 110 3
55 -2 201 -7 325 -10z m-2984 -85 c13 0 34 -10 48 -23 13 -12 38 -34 56 -47
25 -19 31 -30 28 -52 -3 -18 0 -27 6 -25 9 3 56 -52 56 -66 0 -11 -39 -14 -43
-4 -2 8 -12 8 -33 -1 -23 -9 -91 -10 -114 -2 -13 5 -56 -3 -68 -13 -10 -8 -16
-7 -22 2 -5 9 -9 10 -14 2 -5 -7 -41 -10 -106 -9 -54 2 -96 6 -93 11 2 4 -1 7
-7 7 -7 0 -11 16 -9 45 2 24 0 47 -4 51 -11 11 -8 64 4 64 5 0 7 5 4 10 -3 6
2 10 12 10 10 0 29 7 41 16 20 14 23 14 28 -1 6 -14 8 -14 18 0 12 17 115 36
160 29 16 -2 39 -4 52 -4z m512 -73 c6 -7 14 -37 18 -67 3 -30 12 -64 19 -76
22 -34 30 -94 14 -94 -19 0 -66 45 -74 70 -3 11 -11 20 -16 20 -5 0 -9 15 -9
33 -1 17 -7 50 -15 72 -11 30 -11 41 -2 47 19 12 53 9 65 -5z m-1969 -76 c12
-7 22 -26 26 -52 4 -22 14 -43 22 -46 16 -6 14 -31 -12 -133 -10 -36 -23 -70
-31 -76 -8 -6 -14 -20 -14 -31 0 -11 -11 -30 -26 -43 -23 -22 -98 -150 -87
-150 2 0 14 5 26 11 18 9 16 6 -7 -20 -23 -24 -26 -31 -13 -31 10 0 14 -5 11
-14 -3 -7 2 -16 12 -20 11 -4 13 -10 7 -19 -5 -6 -8 -32 -7 -57 1 -25 -2 -60
-6 -77 -5 -19 -4 -35 1 -39 5 -3 9 -31 9 -62 1 -54 21 -104 36 -89 12 11 34
-14 34 -38 0 -22 22 -50 32 -40 15 15 130 -146 121 -171 -2 -6 3 -23 11 -39
10 -18 12 -34 6 -44 -5 -9 -4 -23 1 -33 9 -16 4 -36 -24 -100 -7 -17 -20 -28
-37 -30 -21 -3 -26 -9 -31 -43 -3 -22 -12 -53 -21 -69 l-15 -29 -16 24 c-10
13 -17 34 -17 47 0 37 -19 65 -35 52 -10 -8 -14 -8 -18 2 -8 24 -14 3 -10 -34
3 -22 10 -35 17 -32 8 3 10 -14 8 -58 -4 -101 -8 -110 -37 -96 -14 6 -25 17
-25 25 0 7 -7 13 -15 13 -9 0 -15 9 -15 24 0 40 -10 58 -25 46 -10 -8 -18 -5
-32 15 -10 14 -33 43 -50 63 -18 20 -36 46 -39 57 -4 11 -11 23 -17 27 -6 3
-14 28 -18 55 -4 26 -12 68 -19 92 -8 34 -8 91 1 225 6 106 8 242 4 328 -7
158 6 288 31 309 8 6 14 24 14 40 0 15 7 34 15 43 8 8 18 29 22 47 3 19 13 34
25 36 10 3 18 9 18 14 0 5 5 8 12 7 6 -2 13 6 15 17 3 11 7 27 10 35 7 16 9
30 11 101 2 35 7 48 22 55 31 14 117 16 139 5z m4181 -151 c0 -11 -7 -20 -15
-20 -15 0 -21 21 -8 33 12 13 23 7 23 -13z m-2140 -41 c0 -6 -4 -7 -10 -4 -5
3 -10 11 -10 16 0 6 5 7 10 4 6 -3 10 -11 10 -16z m2175 -84 c23 -13 45 -21
49 -18 3 3 6 1 6 -5 0 -8 -18 -12 -47 -12 -66 0 -123 11 -123 22 0 6 11 7 24
4 19 -5 26 -1 31 14 8 25 10 25 60 -5z m-125 -15 c0 -5 -4 -10 -10 -10 -5 0
-10 5 -10 10 0 6 5 10 10 10 6 0 10 -4 10 -10z m-656 -117 c4 -11 -4 -28 -26
-50 -36 -38 -43 -39 -86 -17 -34 17 -39 33 -20 64 17 27 122 30 132 3z m721
-2 c3 -11 12 -22 21 -25 25 -10 57 -96 55 -151 -1 -27 -6 -54 -10 -58 -14 -14
-63 21 -81 60 -24 51 -62 89 -104 103 -30 10 -34 14 -27 33 18 49 133 79 146
38z m-2016 -168 c1 -7 -3 -13 -9 -13 -5 0 -10 15 -9 33 0 27 2 29 9 12 5 -11
9 -26 9 -32z m1661 -1 c0 -5 -7 -17 -15 -28 -15 -19 -20 -8 -9 20 6 17 24 22
24 8z m-1657 -55 c-3 -5 -2 -12 3 -16 11 -7 40 -91 49 -141 6 -30 27 -102 43
-150 3 -8 7 -28 9 -45 1 -16 4 -45 6 -63 3 -29 0 -34 -24 -39 -25 -5 -27 -9
-23 -39 5 -41 -13 -45 -27 -6 -6 19 -23 34 -53 47 -26 12 -42 25 -39 32 3 8
-3 13 -16 13 -12 0 -21 6 -21 15 0 11 -11 15 -40 15 -22 0 -40 -4 -40 -10 0
-14 -27 -13 -32 1 -3 9 -14 7 -38 -4 -42 -18 -67 -18 -74 0 -6 16 -40 17 -68
2 -14 -8 -23 -8 -31 0 -6 6 -19 11 -29 11 -11 0 -15 5 -12 15 4 8 1 15 -4 15
-6 0 -18 7 -27 16 -12 12 -19 13 -29 5 -10 -9 -15 -8 -20 5 -12 30 -6 43 22
47 l27 4 -24 8 -25 8 23 9 c14 5 30 3 44 -6 13 -7 55 -14 100 -15 66 -2 82 1
109 21 21 14 51 23 88 26 50 4 59 1 80 -22 25 -26 50 -34 50 -16 0 5 -7 7 -15
4 -8 -4 -15 -2 -15 4 0 5 11 12 25 14 14 3 25 1 25 -3 0 -5 5 -9 11 -9 9 0 10
27 4 98 -4 53 -7 105 -7 115 4 64 5 69 13 56 4 -7 5 -17 2 -22z m1620 13 c3
-11 1 -23 -4 -26 -5 -3 -9 -13 -9 -23 0 -10 -9 -30 -20 -44 -11 -14 -20 -32
-20 -41 0 -9 -4 -16 -10 -16 -5 0 -10 8 -10 19 0 10 -7 24 -15 31 -18 15 -21
89 -2 91 6 1 15 1 20 0 4 0 7 6 7 14 0 24 56 20 63 -5z m340 -70 c3 -11 1 -20
-4 -20 -5 0 -9 -9 -9 -20 0 -17 6 -20 38 -19 20 1 28 4 18 6 -17 4 -14 8 13
19 18 8 37 14 42 14 11 0 12 -44 2 -91 -7 -33 -7 -33 -14 -9 l-7 25 -1 -26
c-1 -23 -5 -26 -28 -22 l-28 4 25 -15 25 -15 -37 -1 c-58 0 -68 7 -68 53 0 23
-7 48 -16 58 -13 14 -13 22 -4 39 8 15 8 20 1 16 -6 -4 -11 -3 -11 3 0 25 56
27 63 1z m-2811 -42 c28 -29 32 -40 34 -93 1 -33 -1 -64 -3 -68 -10 -17 -32
16 -43 63 -7 28 -15 50 -19 50 -3 0 -12 14 -20 31 -12 27 -12 33 0 40 19 12
16 13 51 -23z m109 -259 c5 -11 14 -19 20 -19 17 0 36 -24 31 -38 -2 -7 4 -19
13 -26 17 -12 17 -14 0 -40 -19 -28 -43 -28 -76 0 -8 8 -25 14 -37 14 -22 0
-52 24 -52 43 0 7 5 29 10 49 8 26 17 38 33 40 30 5 46 -1 58 -23z m-1793
-108 c7 -29 9 -78 5 -116 -4 -42 -2 -69 4 -73 6 -4 8 -22 5 -41 -3 -23 -7 -29
-13 -20 -5 8 -9 22 -9 32 0 11 -7 34 -16 53 -10 21 -14 49 -12 71 3 21 -1 58
-9 83 -8 25 -16 55 -18 67 -3 21 -2 22 24 9 21 -11 30 -27 39 -65z m1511 0
c10 -7 12 -13 5 -23 -6 -7 -11 -29 -13 -48 -2 -37 -31 -69 -64 -70 -26 0 -31
24 -13 59 9 16 16 37 16 46 0 35 38 55 69 36z m-1563 -138 c-4 -16 -12 -46
-18 -68 -10 -34 -12 -36 -16 -16 -5 30 17 111 30 111 6 0 7 -12 4 -27z m1334
3 c0 -8 6 -16 12 -18 9 -3 8 -12 -5 -31 -15 -23 -20 -25 -37 -15 -24 16 -25
35 -3 60 19 22 33 23 33 4z m-1286 -230 c3 -30 3 -63 -2 -74 -6 -18 -9 -19
-25 -7 -18 13 -18 15 -2 39 11 16 16 39 13 61 -2 19 -1 35 3 35 3 0 9 -24 13
-54z m63 22 c-3 -7 -5 -2 -5 12 0 14 2 19 5 13 2 -7 2 -19 0 -25z m8 -66 c-5
-13 -8 -14 -20 -1 -7 8 -17 28 -21 44 l-7 30 27 -29 c16 -17 25 -35 21 -44z
m-219 -24 c-16 -22 -16 -22 -16 8 0 37 11 50 22 29 6 -10 3 -23 -6 -37z m2104
-237 c0 -15 -62 -33 -74 -21 -10 10 -2 14 39 23 33 8 35 7 35 -2z m-1735 -31
c3 -5 1 -10 -4 -10 -6 0 -11 5 -11 10 0 6 2 10 4 10 3 0 8 -4 11 -10z m45 -11
c0 -5 -4 -9 -10 -9 -5 0 -10 7 -10 16 0 8 5 12 10 9 6 -3 10 -10 10 -16z m34
-34 c-4 -8 -8 -15 -10 -15 -2 0 -4 7 -4 15 0 8 4 15 10 15 5 0 7 -7 4 -15z
m2027 -608 c-10 -9 -11 -8 -5 6 3 10 9 15 12 12 3 -3 0 -11 -7 -18z m494 -262
c110 -3 226 -5 258 -5 36 0 57 -4 57 -11 0 -9 -94 -10 -357 -4 -197 4 -361 9
-366 12 -4 2 -25 5 -47 5 -22 0 -40 4 -40 9 0 6 63 7 148 4 81 -2 237 -7 347
-10z m488 -22 c-29 -2 -77 -2 -105 0 -29 2 -6 3 52 3 58 0 81 -1 53 -3z m777
-13 c0 -5 -2 -10 -4 -10 -3 0 -8 5 -11 10 -3 6 -1 10 4 10 6 0 11 -4 11 -10z
m30 -20 c0 -5 -2 -10 -4 -10 -3 0 -8 5 -11 10 -3 6 -1 10 4 10 6 0 11 -4 11
-10z m-3746 -72 c-4 -7 -14 -21 -23 -31 -12 -14 -12 -20 -3 -26 10 -6 10 -17
-2 -52 -20 -57 -23 -116 -8 -131 7 -7 12 -22 12 -35 0 -13 3 -23 8 -23 4 0 6
18 4 40 -5 51 13 53 33 3 35 -86 94 -207 113 -228 11 -13 18 -25 16 -28 -2 -2
2 -10 11 -17 8 -7 15 -19 15 -26 0 -8 7 -14 15 -14 19 0 19 9 -1 49 -9 18 -13
35 -10 38 3 4 6 2 6 -4 0 -6 13 -26 30 -44 16 -19 33 -49 36 -67 4 -18 22 -55
40 -82 41 -60 67 -122 61 -147 -4 -20 -11 -9 -21 38 -3 14 -21 46 -41 72 -19
25 -35 55 -35 66 0 25 -18 28 -27 5 -4 -10 0 -22 9 -28 8 -6 18 -24 22 -40 4
-16 16 -40 26 -53 10 -13 21 -46 25 -73 4 -28 11 -50 17 -50 5 0 8 -10 6 -22
-2 -17 -11 -24 -32 -26 -24 -3 -28 -1 -22 13 3 10 2 23 -2 29 -13 15 -26 67
-23 89 1 10 -9 31 -22 47 -14 16 -27 35 -29 41 -2 7 -10 9 -16 5 -10 -6 -8
-15 7 -39 24 -40 68 -186 63 -209 -5 -26 -22 -22 -22 5 0 13 -3 27 -7 31 -4 3
-8 15 -10 26 -1 10 -10 38 -19 62 -8 24 -18 51 -21 61 -6 20 -19 22 -29 6 -4
-7 4 -20 17 -31 14 -11 19 -21 13 -24 -6 -3 -9 -16 -6 -29 2 -14 8 -22 13 -19
5 3 6 -9 2 -27 -3 -18 -2 -30 3 -27 11 7 5 -83 -6 -96 -4 -4 -8 -2 -7 5 1 8
-3 40 -7 72 -7 45 -12 57 -23 53 -8 -3 -23 -1 -33 4 -15 8 -20 6 -25 -9 -3
-10 -5 -23 -4 -27 1 -5 1 -17 0 -27 -1 -15 -4 -16 -22 -7 -12 7 -25 8 -32 3
-7 -5 -23 -10 -37 -11 -14 -1 -45 -8 -69 -17 -24 -8 -51 -15 -61 -15 -10 0
-28 -11 -41 -25 -13 -13 -32 -25 -41 -25 -10 0 -18 -4 -18 -9 0 -6 -9 -9 -20
-8 -11 1 -20 7 -20 14 0 18 39 55 50 48 6 -4 10 -1 10 4 0 6 7 11 15 11 8 0
15 4 15 10 0 5 13 7 29 4 38 -8 88 9 126 42 29 26 29 26 5 20 -23 -7 -24 -6
-7 7 10 8 19 28 20 43 1 16 8 34 14 39 14 11 31 81 39 160 5 50 19 79 34 70 5
-3 3 9 -3 25 l-12 31 -10 -31 c-9 -27 -11 -28 -21 -12 -6 10 -15 32 -19 50 -3
18 -11 32 -16 32 -5 0 -9 7 -9 16 0 8 -7 23 -16 31 -11 12 -14 27 -11 50 4 25
2 36 -9 40 -21 8 -61 -32 -68 -67 -4 -23 -12 -30 -40 -35 -19 -4 -41 -4 -48 0
-10 6 -11 5 0 -6 14 -15 16 -33 3 -25 -12 8 -22 -20 -15 -39 5 -11 2 -13 -10
-9 -12 4 -16 0 -17 -17 l-2 -24 -4 23 c-2 12 -9 20 -14 17 -5 -4 -9 -1 -9 5 0
7 6 10 14 7 9 -4 16 5 20 26 7 36 33 67 55 67 18 0 56 39 47 48 -3 3 -1 11 5
18 16 20 28 79 33 159 2 39 11 84 20 100 9 17 16 36 16 44 0 7 12 24 28 37 15
13 23 24 17 24 -5 0 -3 5 5 10 20 13 23 12 14 -2z m2268 -315 c15 -15 28 -32
28 -37 0 -6 9 -17 21 -24 12 -7 18 -16 15 -19 -3 -4 -1 -12 5 -20 6 -7 8 -13
4 -13 -5 0 0 -9 10 -20 10 -11 16 -23 12 -26 -3 -3 7 -43 22 -88 45 -131 50
-148 61 -221 6 -38 12 -81 15 -95 2 -14 11 -38 19 -55 9 -16 16 -35 16 -41 0
-6 7 -17 15 -24 8 -7 15 -26 15 -42 l0 -30 -31 26 c-17 14 -36 26 -42 26 -7 0
-8 3 -1 10 25 25 -58 376 -120 505 -19 39 -40 85 -47 103 -8 17 -17 32 -20 32
-4 0 -9 8 -12 18 -4 9 -14 27 -23 40 -24 32 2 29 38 -5z m1448 -77 c0 5 10 -6
21 -24 12 -18 18 -36 15 -40 -12 -11 -37 12 -52 47 -13 30 -12 32 1 21 8 -7
15 -9 15 -4z m1197 -62 c-3 -3 -12 -4 -19 -1 -8 3 -5 6 6 6 11 1 17 -2 13 -5z
m-1685 -106 c-7 -7 -12 -8 -12 -2 0 14 12 26 19 19 2 -3 -1 -11 -7 -17z
m-4656 -97 c-4 -5 0 -12 6 -14 18 -8 -23 -8 -49 -1 -31 8 -19 24 18 24 17 0
28 -4 25 -9z m4152 -78 c94 -54 156 -102 130 -103 -9 0 -39 18 -67 40 -28 22
-55 40 -60 40 -5 0 -31 11 -58 24 -26 12 -64 31 -83 40 l-35 17 45 -6 c26 -4
79 -25 128 -52z m390 -119 c7 -2 10 -8 7 -14 -8 -13 -62 -13 -70 0 -3 6 -16
10 -28 10 -18 0 -19 2 -7 10 13 9 62 6 98 -6z m-4423 -6 c-3 -7 -7 -56 -9
-108 -2 -52 -5 -97 -6 -100 -1 -3 -2 -12 -1 -21 1 -9 -5 -16 -13 -16 -12 0
-14 17 -11 91 3 81 6 106 21 154 2 6 8 12 13 12 6 0 8 -6 6 -12z m1695 3 c0
-5 3 -17 7 -26 5 -15 3 -16 -15 -6 -25 13 -29 41 -7 41 8 0 15 -4 15 -9z
m3835 -62 c10 -15 2 -19 -24 -12 -17 4 -19 8 -9 14 18 12 26 11 33 -2z m-6635
-53 c0 -30 -15 -42 -24 -20 -10 27 -7 44 9 44 9 0 15 -9 15 -24z m2451 -9
c-10 -9 -11 -8 -5 6 3 10 9 15 12 12 3 -3 0 -11 -7 -18z m4103 -9 c19 -36 19
-38 7 -38 -5 0 -11 8 -14 18 -2 9 -8 25 -12 35 -12 30 3 19 19 -15z m74 5 c38
-55 42 -89 41 -327 -1 -127 -4 -221 -6 -208 -2 12 -9 22 -14 22 -5 0 -9 12 -9
28 1 15 -1 57 -4 94 -2 37 -1 70 4 73 24 15 -11 266 -41 300 -12 12 -11 45 0
45 5 0 18 -12 29 -27z m-6699 -75 c1 -48 6 -56 42 -63 20 -4 21 -1 16 40 -2
25 -1 47 3 50 4 2 10 -18 13 -45 3 -28 9 -55 13 -61 4 -6 8 -46 9 -88 1 -42 9
-111 19 -155 9 -43 15 -80 13 -83 -7 -6 -45 96 -56 147 -5 25 -10 74 -10 109
0 35 -3 66 -5 68 -2 3 -14 -1 -26 -7 -12 -6 -24 -9 -28 -6 -3 4 -8 33 -10 66
-2 33 -8 63 -13 66 -5 3 -22 -4 -37 -15 -33 -23 -65 -14 -43 13 16 19 41 21
41 4 0 -7 10 2 22 21 22 35 22 35 29 10 4 -13 7 -45 8 -71z m6775 7 c6 -42 2
-36 -20 29 -11 33 -11 37 1 25 7 -8 16 -32 19 -54z m-5697 3 c-3 -8 -6 -5 -6
6 -1 11 2 17 5 13 3 -3 4 -12 1 -19z m-930 -10 c-3 -8 -6 -5 -6 6 -1 11 2 17
5 13 3 -3 4 -12 1 -19z m5643 -40 c0 -5 12 -34 26 -65 31 -65 64 -170 56 -177
-3 -3 -22 34 -43 82 -20 48 -51 113 -69 145 -17 32 -28 62 -25 67 6 10 55 -36
55 -52z m854 47 c3 -8 1 -15 -4 -15 -6 0 -10 7 -10 15 0 8 2 15 4 15 2 0 6 -7
10 -15z m-4534 -25 c-7 -4 -10 -23 -9 -43 2 -20 -1 -36 -6 -36 -6 0 -9 17 -7
37 4 50 10 65 23 56 8 -5 8 -9 -1 -14z m2950 0 c0 -5 -2 -10 -4 -10 -3 0 -8 5
-11 10 -3 6 -1 10 4 10 6 0 11 -4 11 -10z m-3900 -44 c0 -3 -4 -8 -10 -11 -5
-3 -10 -1 -10 4 0 6 5 11 10 11 6 0 10 -2 10 -4z m5641 -123 c3 -125 0 -187
-8 -180 -4 4 -7 76 -9 160 -1 86 2 143 7 130 4 -11 9 -61 10 -110z m-6556 107
c3 -5 -1 -10 -9 -10 -9 0 -16 5 -16 10 0 6 4 10 9 10 6 0 13 -4 16 -10z m-85
-26 c0 -8 -4 -12 -10 -9 -5 3 -10 10 -10 16 0 5 5 9 10 9 6 0 10 -7 10 -16z
m6513 -51 c3 -24 1 -43 -4 -43 -5 0 -9 21 -9 47 0 56 5 54 13 -4z m-6516 -5
c-3 -8 -6 -5 -6 6 -1 11 2 17 5 13 3 -3 4 -12 1 -19z m1001 -40 c0 -35 1 -67
3 -73 2 -5 0 -30 -4 -55 -3 -25 -9 -65 -12 -90 -4 -25 -12 -50 -20 -55 -8 -7
-11 -22 -8 -37 3 -15 -1 -51 -8 -80 -7 -29 -12 -56 -11 -60 1 -3 -5 -8 -12
-11 -9 -4 -12 0 -10 11 5 19 25 179 25 202 1 8 5 29 9 45 9 28 18 144 19 228
1 25 6 37 15 37 11 0 14 -15 14 -62z m-72 -35 c-5 -84 -26 -196 -33 -176 -2 6
0 27 5 46 5 18 9 59 8 90 -1 31 2 57 7 57 5 0 8 10 7 23 -3 28 -1 37 6 37 3 0
3 -35 0 -77z m-929 35 c-3 -8 -6 -5 -6 6 -1 11 2 17 5 13 3 -3 4 -12 1 -19z
m853 -10 c0 -31 0 -31 -21 -12 -19 17 -19 19 -3 31 24 17 24 17 24 -19z m4415
-18 c-26 -11 -35 -12 -35 -2 0 4 12 8 28 9 23 1 24 1 7 -7z m-3380 -128 c-13
-13 -20 18 -16 65 l5 48 9 -53 c5 -30 6 -56 2 -60z m3560 98 c3 -5 -1 -10 -9
-10 -9 0 -16 5 -16 10 0 6 4 10 9 10 6 0 13 -4 16 -10z m1028 4 c8 -8 -3 -34
-14 -34 -5 0 -9 9 -9 20 0 19 11 26 23 14z m237 -8 c0 -9 -7 -12 -20 -9 -31 8
-34 23 -6 23 16 0 26 -6 26 -14z m-4900 -26 c0 -5 -5 -10 -11 -10 -5 0 -7 5
-4 10 3 6 8 10 11 10 2 0 4 -4 4 -10z m2433 -6 c-8 -20 -45 -34 -93 -34 -21 0
-42 -5 -45 -10 -4 -6 -11 -8 -16 -4 -5 3 -22 -2 -36 -11 l-26 -18 28 -11 c22
-9 25 -14 14 -22 -8 -6 -27 -7 -44 -3 -16 3 -24 7 -17 8 6 0 12 8 12 17 0 11
-6 14 -20 9 -23 -7 -25 -2 -10 26 6 11 21 19 35 19 14 0 33 4 43 9 14 7 48 15
174 40 4 0 5 -6 1 -15z m1443 -39 c4 -22 31 -64 37 -58 4 3 7 -1 7 -9 0 -11
-7 -14 -25 -10 -20 3 -25 10 -25 36 0 18 -4 36 -9 42 -5 5 -12 20 -16 34 l-7
25 18 -25 c10 -14 19 -29 20 -35z m-4649 3 c-3 -7 -5 -2 -5 12 0 14 2 19 5 13
2 -7 2 -19 0 -25z m-1020 0 c-3 -8 -6 -5 -6 6 -1 11 2 17 5 13 3 -3 4 -12 1
-19z m1480 6 c-3 -3 -12 -4 -19 -1 -8 3 -5 6 6 6 11 1 17 -2 13 -5z m326 -10
c6 -6 -16 -34 -27 -34 -3 0 -6 9 -6 20 0 19 20 27 33 14z m-726 -26 c-3 -8 -6
-5 -6 6 -1 11 2 17 5 13 3 -3 4 -12 1 -19z m-1070 -20 c-3 -8 -6 -5 -6 6 -1
11 2 17 5 13 3 -3 4 -12 1 -19z m5613 -14 c0 -8 -4 -12 -10 -9 -5 3 -10 13
-10 21 0 8 5 12 10 9 6 -3 10 -13 10 -21z m-3834 -11 c-10 -10 -19 5 -10 18 6
11 8 11 12 0 2 -7 1 -15 -2 -18z m84 11 c0 -8 -5 -12 -10 -9 -6 4 -8 11 -5 16
9 14 15 11 15 -7z m2240 2 c0 -9 -7 -12 -20 -9 -11 3 -17 9 -14 14 8 14 34 10
34 -5z m1534 -1 c-4 -8 -8 -15 -10 -15 -2 0 -4 7 -4 15 0 8 4 15 10 15 5 0 7
-7 4 -15z m976 1 c0 -8 -4 -18 -10 -21 -5 -3 -10 3 -10 14 0 12 5 21 10 21 6
0 10 -6 10 -14z m-6600 -80 c0 -51 -6 -43 -14 19 -4 34 -3 45 4 35 5 -8 10
-33 10 -54z m5747 22 c-3 -8 -6 -5 -6 6 -1 11 2 17 5 13 3 -3 4 -12 1 -19z
m-127 -9 c0 -5 -4 -9 -10 -9 -5 0 -10 7 -10 16 0 8 5 12 10 9 6 -3 10 -10 10
-16z m967 -1 c-3 -8 -6 -5 -6 6 -1 11 2 17 5 13 3 -3 4 -12 1 -19z m-2527 -12
c0 -14 -6 -28 -12 -32 -7 -4 -10 -4 -6 1 4 4 3 15 -2 25 -9 17 -4 30 12 30 4
0 8 -11 8 -24z m-1504 -13 c-7 -7 -26 7 -26 19 0 6 6 6 15 -2 9 -7 13 -15 11
-17z m-68 -30 c1 -14 4 -29 7 -31 10 -10 55 18 55 35 0 24 17 4 26 -31 5 -22
4 -28 -7 -24 -16 6 -108 -19 -126 -34 -28 -23 -1 -36 88 -43 99 -8 113 -21 57
-54 -67 -39 -108 -73 -108 -87 0 -29 121 -10 145 23 12 16 14 14 29 -21 19
-45 16 -52 -12 -37 -24 13 -103 -8 -132 -34 -16 -15 -18 -14 -29 12 -6 15 -15
49 -20 76 -8 44 -7 47 13 47 12 0 37 13 56 30 l35 29 -50 1 c-28 0 -56 -5 -63
-12 -13 -13 -10 -19 -46 86 -25 71 -25 86 -2 86 8 0 11 -10 8 -30 -4 -27 -1
-30 21 -30 32 0 41 13 28 38 -11 20 -6 32 13 32 7 0 13 -12 14 -27z m4099 -35
c-2 -13 -4 -3 -4 22 0 25 2 35 4 23 2 -13 2 -33 0 -45z m-2497 34 c0 -5 -7 -9
-15 -9 -8 0 -12 4 -9 9 3 4 9 8 15 8 5 0 9 -4 9 -8z m23 -65 c-4 -6 -10 -2
-14 9 -12 31 -9 40 6 20 8 -10 11 -24 8 -29z m-2266 -39 c-2 -13 -4 -3 -4 22
0 25 2 35 4 23 2 -13 2 -33 0 -45z m1157 3 c2 -27 -1 -48 -6 -45 -4 3 -6 9 -3
14 3 5 1 11 -5 15 -5 3 -10 11 -10 16 0 6 5 7 10 4 6 -3 10 -1 10 4 0 6 -4 11
-9 11 -5 0 -7 9 -4 20 8 31 14 18 17 -39z m69 19 c3 -11 1 -20 -4 -20 -5 0 -9
9 -9 20 0 11 2 20 4 20 2 0 6 -9 9 -20z m3454 -17 c-3 -10 -5 -4 -5 12 0 17 2
24 5 18 2 -7 2 -21 0 -30z m-4595 -10 c3 -21 6 -138 7 -260 2 -195 0 -223 -14
-223 -8 0 -15 6 -15 13 -2 554 -2 507 9 507 5 0 11 -17 13 -37z m4658 10 c0
-45 -15 -56 -16 -12 -1 21 2 39 7 39 5 0 9 -12 9 -27z m529 -9 c12 -20 20 -41
19 -46 -2 -5 -13 11 -26 36 -26 55 -22 60 7 10z m-2625 -14 c38 0 44 -8 24
-28 -18 -18 -49 -14 -75 10 -28 26 -30 43 -4 28 11 -5 36 -10 55 -10z m-2649
-417 c-4 -178 -10 -321 -14 -319 -3 2 -3 107 0 233 4 125 8 289 10 363 1 74 4
115 7 90 2 -25 1 -190 -3 -367z m160 169 c4 -151 3 -222 -5 -222 -7 0 -10 76
-10 227 0 124 2 224 5 222 2 -3 7 -105 10 -227z m2410 198 c20 -22 82 -43 98
-33 6 4 8 -3 4 -18 -4 -13 -7 -30 -7 -36 0 -8 -8 -5 -20 7 -27 27 -40 25 -40
-6 0 -16 -5 -24 -12 -21 -8 2 -12 17 -11 35 2 23 -3 34 -17 42 -11 6 -25 8
-30 5 -11 -7 -13 6 -4 29 8 21 17 20 39 -4z m-3532 -15 c-3 -9 -8 -14 -10 -11
-3 3 -2 9 2 15 9 16 15 13 8 -4z m4031 -58 c22 -81 54 -234 66 -317 7 -41 17
-86 23 -100 10 -24 45 -146 46 -162 1 -5 -10 -8 -23 -8 -20 0 -25 6 -29 38 -8
56 -30 161 -69 327 -38 161 -56 291 -38 280 5 -3 16 -29 24 -58z m1611 13
c-12 -19 -25 -10 -25 16 0 23 1 24 16 10 8 -9 12 -20 9 -26z m-2139 -28 c-9
-8 -26 10 -26 26 1 15 2 15 15 -2 8 -11 13 -21 11 -24z m444 23 c0 -8 -2 -15
-4 -15 -2 0 -6 7 -10 15 -3 8 -1 15 4 15 6 0 10 -7 10 -15z m-3955 -32 c-5
-15 -8 -37 -7 -48 l2 -20 -9 20 c-4 11 -4 33 0 50 5 16 9 32 9 34 0 2 3 2 6
-2 4 -3 3 -19 -1 -34z m2168 -6 c4 3 7 -1 7 -10 0 -23 -27 -10 -34 16 -5 20
-4 20 8 5 7 -10 16 -15 19 -11z m3487 19 c0 -3 -4 -8 -10 -11 -5 -3 -10 -1
-10 4 0 6 5 11 10 11 6 0 10 -2 10 -4z m-1500 -255 c0 -8 -3 -12 -6 -9 -9 10
-54 201 -53 228 1 24 58 -190 59 -219z m-556 163 c17 4 18 0 13 -46 -7 -59
-10 -63 -34 -54 -17 7 -17 8 0 17 21 12 22 45 1 53 -26 10 -34 7 -34 -14 0
-11 -4 -20 -9 -20 -17 0 -22 19 -11 39 9 17 5 21 -25 32 -32 12 -45 35 -29 51
3 3 29 -9 57 -28 31 -20 60 -33 71 -30z m23 39 c-3 -3 -11 -2 -17 2 -9 6 -9
10 1 16 14 8 27 -7 16 -18z m2037 -95 c1 -106 -10 -152 -25 -110 -5 12 -4 33
1 47 5 14 6 25 2 25 -10 0 -15 137 -6 151 16 26 27 -17 28 -113z m-1684 97 c0
-8 -2 -15 -4 -15 -2 0 -6 7 -10 15 -3 8 -1 15 4 15 6 0 10 -7 10 -15z m2299
-27 c15 -48 28 -217 16 -205 -5 4 -12 31 -17 60 -4 28 -14 79 -22 112 -7 33
-11 63 -9 68 9 16 19 5 32 -35z m-4070 -180 c1 -72 -1 -78 -19 -78 -18 0 -20
7 -20 79 0 43 -3 100 -7 126 -4 35 -3 46 5 41 7 -4 12 0 13 11 2 49 28 -112
28 -179z m1785 130 c19 -68 31 -135 22 -127 -4 4 -14 36 -22 70 -8 35 -16 74
-19 87 -10 44 4 21 19 -30z m-2181 36 c3 -3 -15 -32 -40 -65 -26 -32 -44 -61
-42 -64 10 -9 79 16 88 33 8 15 11 13 20 -11 15 -39 14 -52 -2 -39 -15 13
-140 -11 -145 -27 -2 -6 -8 -9 -13 -5 -15 9 -10 53 9 72 9 9 28 32 41 51 l24
33 -34 -7 c-19 -3 -42 -15 -51 -26 -17 -20 -17 -20 -27 0 -19 35 -13 41 47 42
31 1 68 5 82 9 33 11 36 11 43 4z m305 -131 c2 -65 2 -115 -2 -112 -4 4 -10
61 -14 127 -4 71 -3 117 2 112 5 -5 11 -62 14 -127z m1372 74 c0 -5 -7 -4 -15
3 -8 7 -15 20 -15 29 1 13 3 13 15 -3 8 -11 15 -24 15 -29z m-814 19 c8 -8 14
-24 14 -35 0 -12 5 -21 10 -21 6 0 8 -11 4 -27 -6 -22 -4 -25 10 -20 10 4 24
7 32 7 12 0 13 8 8 38 -8 44 -22 64 -38 55 -6 -3 -8 -2 -3 2 10 12 57 13 57 1
0 -5 3 -7 6 -3 3 3 14 -2 24 -11 48 -47 44 -114 -10 -150 -45 -30 -82 -24
-127 23 -38 40 -44 74 -23 131 11 28 16 29 36 10z m-2686 -6 c0 -5 -5 -10 -11
-10 -5 0 -7 5 -4 10 3 6 8 10 11 10 2 0 4 -4 4 -10z m4927 -22 c-3 -8 -6 -5
-6 6 -1 11 2 17 5 13 3 -3 4 -12 1 -19z m-4996 -55 c-9 -16 -10 -16 -11 4 0
12 3 30 7 40 7 16 8 16 11 -4 2 -12 -1 -30 -7 -40z m3592 12 c20 -11 37 -23
37 -27 0 -5 9 -8 20 -8 15 0 20 -7 20 -25 0 -26 -3 -26 -82 -10 -10 2 -18 0
-18 -4 0 -10 34 -46 60 -64 18 -13 20 -19 11 -48 -5 -19 -10 -26 -10 -16 -1 9
-13 22 -28 29 -16 6 -43 17 -61 25 -18 8 -40 12 -48 9 -13 -5 -14 0 -9 27 8
36 25 60 25 35 0 -17 31 -41 70 -53 20 -6 16 1 -22 39 -27 25 -48 48 -48 51 0
3 21 5 47 5 44 0 46 1 31 16 -9 9 -28 17 -42 17 -27 0 -30 4 -19 33 5 14 8 15
17 3 6 -8 28 -23 49 -34z m-363 31 c0 -3 -4 -8 -10 -11 -5 -3 -10 -1 -10 4 0
6 5 11 10 11 6 0 10 -2 10 -4z m-72 -93 c-2 -47 -7 -83 -13 -83 -14 0 -18 109
-5 125 8 9 6 14 -5 19 -19 7 -12 23 10 23 13 0 15 -13 13 -84z m3259 45 c-3
-8 -6 -5 -6 6 -1 11 2 17 5 13 3 -3 4 -12 1 -19z m-1431 -75 c2 -13 16 -54 30
-93 14 -39 24 -78 23 -88 -2 -9 3 -34 10 -55 7 -21 10 -41 7 -44 -8 -9 -9 -7
-34 77 -13 41 -29 98 -38 125 -18 60 -31 180 -13 130 5 -16 12 -40 15 -52z
m1602 32 c3 -14 -1 -16 -22 -11 -19 5 -26 3 -26 -9 0 -22 -18 -18 -25 5 -9 29
2 40 38 36 21 -2 33 -9 35 -21z m-6604 -22 c-4 -21 -10 -43 -15 -49 -5 -6 -6
-14 -2 -17 3 -4 1 -7 -5 -7 -13 0 -16 13 -5 24 4 3 8 14 9 23 5 33 14 63 20
63 3 0 2 -17 -2 -37z m3243 15 c-3 -8 -6 -5 -6 6 -1 11 2 17 5 13 3 -3 4 -12
1 -19z m3103 8 c0 -3 -4 -8 -10 -11 -5 -3 -10 -1 -10 4 0 6 5 11 10 11 6 0 10
-2 10 -4z m-7189 -43 c-10 -17 -10 -16 -11 3 0 23 13 41 18 25 2 -6 -1 -18 -7
-28z m5118 -21 c1 -7 -3 -10 -9 -7 -5 3 -10 18 -9 33 0 24 1 25 9 7 5 -11 9
-26 9 -33z m-2305 11 c28 -30 34 -74 14 -91 -7 -5 -36 -13 -63 -17 -57 -7 -70
-13 -77 -35 -3 -9 -10 0 -17 23 -14 41 -10 54 11 41 18 -12 69 -5 96 12 17 11
22 23 20 42 -3 26 -6 27 -56 26 -28 -1 -63 -9 -76 -17 -27 -18 -36 -13 -36 17
0 19 7 21 79 24 76 3 81 2 105 -25z m1273 -20 c-3 -10 -5 -4 -5 12 0 17 2 24
5 18 2 -7 2 -21 0 -30z m891 -38 c0 -16 -2 -15 -8 5 -4 14 -8 36 -8 50 0 22 1
22 8 -5 4 -16 8 -39 8 -50z m2392 56 c0 -14 -7 -19 -25 -17 -26 1 -36 16 -10
16 8 0 15 5 15 10 0 6 5 10 10 10 6 0 10 -9 10 -19z m-170 -24 c0 -18 -2 -19
-10 -7 -13 20 -13 43 0 35 6 -3 10 -16 10 -28z m-7207 -84 c-3 -35 -10 -63
-16 -63 -6 0 -7 19 -3 53 3 28 6 61 6 72 0 11 3 15 9 10 5 -6 6 -38 4 -72z
m3161 6 c3 -34 6 -91 6 -125 0 -57 -2 -64 -20 -64 -14 0 -19 7 -18 28 0 15 -3
71 -7 125 -7 92 -6 97 13 97 16 0 20 -9 26 -61z m-3070 34 c3 -10 4 -27 2 -38
-2 -11 1 -31 6 -44 5 -15 5 -28 -2 -35 -5 -5 -10 -27 -10 -49 0 -42 -23 -77
-37 -55 -12 20 -15 56 -4 62 5 4 5 20 -2 42 -8 27 -8 40 1 55 7 10 12 29 12
42 0 38 24 52 34 20z m2980 -53 c10 -115 10 -155 1 -158 -5 -1 -11 51 -13 115
-4 126 2 150 12 43z m972 9 c7 -30 21 -79 33 -109 12 -30 21 -56 21 -57 0 -2
-11 -3 -25 -3 -21 0 -25 5 -25 28 0 16 -3 32 -7 36 -9 9 -31 110 -32 144 -2
44 23 17 35 -39z m369 15 c19 -3 38 -10 41 -16 3 -5 14 -6 25 -3 15 5 19 1 19
-21 0 -32 -20 -104 -30 -104 -3 0 -15 7 -26 15 -17 13 -17 14 -2 15 10 0 22 9
28 20 9 16 6 22 -20 35 l-30 16 0 -31 c0 -28 -2 -30 -21 -19 -12 6 -17 14 -12
18 23 15 21 39 -3 50 -14 6 -29 11 -34 11 -14 0 -12 -64 2 -78 16 -16 -3 -15
-25 2 -16 13 -17 17 -2 57 8 24 15 53 15 63 0 19 1 19 20 -2 11 -11 36 -24 55
-28z m-302 -28 c3 -30 1 -43 -4 -35 -5 8 -8 34 -8 59 1 53 6 44 12 -24z m-883
34 c0 -5 -2 -10 -4 -10 -3 0 -8 5 -11 10 -3 6 -1 10 4 10 6 0 11 -4 11 -10z
m1795 -75 c27 -98 29 -109 17 -101 -6 4 -14 23 -18 44 -4 20 -9 42 -13 47 -3
6 -6 15 -7 21 -1 6 -5 27 -8 45 -10 52 9 14 29 -56z m135 8 c10 -37 21 -76 25
-85 5 -12 3 -18 -7 -18 -8 0 -15 12 -16 26 -1 15 -9 49 -17 77 -15 52 -19 85
-9 75 3 -4 14 -37 24 -75z m-1190 24 c0 -11 6 -31 14 -45 19 -34 37 -94 32
-100 -9 -8 -26 9 -26 26 0 9 -9 44 -20 76 -22 66 -27 102 -10 76 5 -8 10 -23
10 -33z m-1803 1 c-3 -7 -5 -2 -5 12 0 14 2 19 5 13 2 -7 2 -19 0 -25z m3780
-10 c-3 -7 -5 -2 -5 12 0 14 2 19 5 13 2 -7 2 -19 0 -25z m-2717 -15 c0 -22
-2 -25 -10 -13 -13 20 -13 40 0 40 6 0 10 -12 10 -27z m2003 -3 c3 -11 1 -18
-4 -14 -5 3 -9 12 -9 20 0 20 7 17 13 -6z m-1423 0 c0 -5 -2 -10 -4 -10 -3 0
-8 5 -11 10 -3 6 -1 10 4 10 6 0 11 -4 11 -10z m2750 -10 c0 -5 -4 -10 -10
-10 -5 0 -10 5 -10 10 0 6 5 10 10 10 6 0 10 -4 10 -10z m-6397 -13 c3 -8 2
-19 -3 -26 -5 -10 -9 -8 -14 4 -3 9 -6 21 -6 26 0 14 17 11 23 -4z m794 -9
c-3 -8 -6 -5 -6 6 -1 11 2 17 5 13 3 -3 4 -12 1 -19z m-150 -10 c-3 -8 -6 -5
-6 6 -1 11 2 17 5 13 3 -3 4 -12 1 -19z m1363 12 c0 -5 -4 -10 -10 -10 -5 0
-10 5 -10 10 0 6 5 10 10 10 6 0 10 -4 10 -10z m1966 -35 c3 -20 10 -38 15
-41 5 -3 9 -10 9 -17 0 -7 -5 -6 -14 3 -16 16 -39 103 -25 95 4 -3 11 -21 15
-40z m2674 29 c0 -8 -4 -12 -10 -9 -5 3 -10 10 -10 16 0 5 5 9 10 9 6 0 10 -7
10 -16z m-3815 -4 c3 -5 1 -10 -4 -10 -6 0 -11 5 -11 10 0 6 2 10 4 10 3 0 8
-4 11 -10z m-110 -31 c19 -17 35 -38 35 -48 -1 -13 -3 -13 -16 4 -20 27 -120
29 -135 3 -6 -10 -14 -18 -19 -18 -17 0 -11 30 11 61 29 41 76 40 124 -2z
m344 -6 c0 -33 -1 -35 -9 -15 -8 20 -4 52 6 52 2 0 4 -17 3 -37z m-2277 -35
c-8 -32 -9 -32 -14 -7 -5 30 12 85 19 57 2 -9 0 -31 -5 -50z m2887 43 c11 -20
5 -31 -16 -31 -7 0 -13 11 -13 25 0 29 15 33 29 6z m2921 -1 c0 -13 -7 -20
-20 -20 -13 0 -20 7 -20 20 0 13 7 20 20 20 13 0 20 -7 20 -20z m-196 -5 c3
-8 1 -15 -4 -15 -6 0 -10 7 -10 15 0 8 2 15 4 15 2 0 6 -7 10 -15z m-6408 -42
c-11 -11 -17 4 -9 23 7 18 8 18 11 1 2 -10 1 -21 -2 -24z m2005 -6 c-8 -8 -11
-5 -11 9 0 27 14 41 18 19 2 -9 -1 -22 -7 -28z m2809 33 c0 -5 -2 -10 -4 -10
-3 0 -8 5 -11 10 -3 6 -1 10 4 10 6 0 11 -4 11 -10z"/>
<path d="M6901 6362 c-5 -10 -6 -35 -1 -62 5 -25 9 -66 10 -92 0 -53 13 -62
70 -50 l35 8 1 60 c1 85 1 86 36 51 18 -18 33 -34 33 -37 0 -3 6 -16 13 -30
12 -22 11 -23 -1 -7 -28 34 -70 17 -59 -25 5 -22 82 -26 82 -5 0 9 10 12 30 9
l30 -4 0 90 0 90 -62 4 c-42 3 -68 0 -77 -9 -12 -10 -18 -10 -30 1 -9 7 -35
16 -58 20 -34 5 -44 3 -52 -12z"/>
<path d="M7217 6343 c-3 -5 -5 -46 -3 -92 3 -91 9 -101 64 -101 47 0 39 -18
-10 -22 l-43 -3 3 -120 c1 -66 4 -126 7 -132 3 -8 24 -13 55 -13 56 0 51 -8
54 102 2 57 5 61 39 45 19 -9 28 -22 32 -49 4 -21 11 -38 17 -38 13 0 35 -27
48 -57 5 -13 18 -23 29 -23 20 0 20 8 23 238 2 159 -1 241 -8 250 -13 15 -298
29 -307 15z m143 -88 c0 -8 -4 -15 -10 -15 -5 0 -10 7 -10 15 0 8 5 15 10 15
6 0 10 -7 10 -15z m87 -109 c12 2 25 -1 28 -6 4 -6 -11 -10 -37 -10 -24 0 -52
-3 -63 -5 -30 -8 -52 9 -36 29 11 12 18 13 49 2 20 -7 47 -12 59 -10z"/>
<path d="M7364 5898 c6 -37 29 -58 64 -58 20 0 23 4 18 23 -3 12 -6 28 -6 36
0 8 -3 11 -6 8 -4 -3 -16 0 -28 8 -34 25 -48 19 -42 -17z"/>
<path d="M4980 5236 c0 -9 5 -16 10 -16 6 0 10 4 10 9 0 6 -4 13 -10 16 -5 3
-10 -1 -10 -9z"/>
<path d="M4538 5193 c7 -3 16 -2 19 1 4 3 -2 6 -13 5 -11 0 -14 -3 -6 -6z"/>
<path d="M4120 5410 c0 -5 7 -10 16 -10 8 0 12 5 9 10 -3 6 -10 10 -16 10 -5
0 -9 -4 -9 -10z"/>
<path d="M2892 2843 c13 -29 29 -53 36 -53 17 0 15 17 -3 24 -8 3 -15 11 -15
18 0 7 -9 24 -20 38 -18 23 -18 20 2 -27z"/>
<path d="M3050 2700 c0 -5 4 -10 9 -10 6 0 13 5 16 10 3 6 -1 10 -9 10 -9 0
-16 -4 -16 -10z"/>
<path d="M2850 2469 c0 -5 5 -7 10 -4 6 3 10 8 10 11 0 2 -4 4 -10 4 -5 0 -10
-5 -10 -11z"/>
<path d="M2931 2464 c0 -11 3 -14 6 -6 3 7 2 16 -1 19 -3 4 -6 -2 -5 -13z"/>
<path d="M4493 1195 c0 -22 2 -30 4 -17 2 12 2 30 0 40 -3 9 -5 -1 -4 -23z"/>
<path d="M6519 5209 c-6 -11 -15 -66 -20 -121 -5 -56 -12 -105 -15 -109 -7
-12 -23 -329 -17 -344 7 -19 77 -45 122 -45 65 0 71 6 71 65 0 56 7 85 20 85
12 0 24 -56 25 -110 0 -51 9 -70 32 -70 9 0 36 -9 59 -20 23 -12 65 -23 93
-27 l51 -6 0 72 c0 55 -3 71 -14 71 -21 0 -30 20 -17 33 6 6 11 19 11 28 0 12
6 16 19 12 31 -8 42 29 52 175 5 74 13 151 19 171 5 20 10 53 10 74 0 30 -4
37 -19 37 -11 0 -27 7 -35 16 -12 11 -40 16 -115 17 -92 2 -101 0 -119 -21
l-20 -23 -7 23 c-11 33 -22 38 -102 38 -63 0 -74 -3 -84 -21z m384 -88 c-4
-15 -17 -21 -55 -26 -32 -5 -54 -3 -61 4 -19 19 8 34 52 29 23 -2 41 0 41 4 0
5 6 8 14 8 9 0 12 -7 9 -19z m-73 -211 c0 -5 -4 -10 -10 -10 -5 0 -10 5 -10
10 0 6 5 10 10 10 6 0 10 -4 10 -10z"/>
<path d="M7055 5023 c-4 -21 -13 -73 -21 -117 -8 -43 -14 -127 -14 -187 0 -93
3 -110 18 -121 38 -27 37 -73 -3 -88 -30 -12 -33 -38 -20 -230 9 -142 18 -162
38 -93 8 28 31 73 50 101 24 34 37 64 39 92 l3 41 17 -33 c9 -18 19 -49 22
-70 4 -20 14 -39 22 -42 13 -5 15 2 11 46 -2 29 -11 79 -20 111 -10 32 -17 76
-17 98 0 22 -6 61 -14 87 -11 39 -39 184 -73 389 -3 18 -9 30 -14 27 -5 -3 -6
2 -3 10 3 9 1 16 -4 16 -6 0 -14 -17 -17 -37z m80 -523 c0 -7 -6 -15 -12 -17
-8 -3 -13 4 -13 17 0 13 5 20 13 18 6 -3 12 -11 12 -18z"/>
<path d="M6465 4570 c-9 -14 4 -70 16 -70 6 0 8 -4 4 -9 -10 -18 26 -41 64
-41 21 0 43 -6 48 -12 12 -15 29 -69 37 -119 6 -32 10 -36 34 -35 22 1 77 36
56 36 -4 0 -1 6 5 14 6 7 14 47 17 88 6 72 6 76 -15 83 -13 4 -34 4 -48 0 -18
-4 -32 0 -47 14 -12 11 -50 30 -85 41 -73 23 -78 24 -86 10z m214 -121 c1 -23
3 -47 4 -52 1 -6 -6 -13 -15 -15 -16 -3 -18 4 -18 52 0 39 4 56 13 56 8 0 14
-15 16 -41z"/>
<path d="M6783 4474 c-3 -9 2 -41 12 -72 9 -32 24 -92 33 -134 10 -42 20 -80
25 -84 4 -4 7 -20 7 -35 0 -32 30 -46 75 -35 22 6 25 12 25 47 0 69 -22 283
-30 292 -6 7 -110 36 -133 37 -4 0 -10 -7 -14 -16z"/>
<path d="M6631 4242 c-1 -25 6 -39 29 -59 17 -13 30 -31 30 -38 0 -7 6 -15 13
-18 9 -3 13 10 14 53 2 57 1 59 -29 69 -17 6 -34 9 -38 6 -5 -3 -11 1 -13 7
-3 7 -6 -2 -6 -20z"/>
<path d="M6675 4051 c-16 -19 -16 -22 7 -63 20 -38 28 -43 63 -46 62 -4 67 0
48 53 -12 30 -23 45 -35 45 -10 0 -18 7 -18 15 0 22 -43 19 -65 -4z"/>
<path d="M7960 3911 c-8 -5 -31 -12 -50 -16 -19 -4 -43 -14 -52 -22 -14 -13
-37 -15 -118 -11 -55 3 -103 2 -105 -3 -10 -14 6 -34 37 -48 17 -8 39 -22 48
-31 9 -9 39 -27 66 -40 45 -22 84 -54 84 -69 0 -4 10 -7 21 -8 31 -3 35 -11
14 -27 -19 -13 -18 -15 5 -40 17 -17 36 -26 58 -26 l32 0 0 175 c0 181 -2 188
-40 166z"/>
<path d="M6664 3889 c-8 -14 15 -39 37 -39 11 0 19 6 19 13 0 18 -47 40 -56
26z"/>
<path d="M6735 3887 c-4 -10 -5 -21 -1 -24 10 -10 18 4 13 24 -4 17 -4 17 -12
0z"/>
<path d="M7028 3872 c-10 -2 -18 -10 -18 -18 0 -8 -6 -14 -14 -14 -8 0 -17
-13 -21 -30 -4 -16 -11 -32 -16 -35 -18 -12 -9 -22 16 -18 13 3 23 10 22 17
-1 6 9 10 25 8 20 -2 28 3 33 19 6 17 9 19 16 8 5 -8 9 -9 9 -4 0 6 5 3 10 -5
8 -12 10 -10 10 11 0 29 -45 67 -72 61z"/>
<path d="M7117 3794 c-16 -16 -6 -35 16 -32 12 2 22 10 22 18 0 16 -26 25 -38
14z"/>
<path d="M7213 3653 c-30 -12 -8 -73 27 -73 21 -1 50 -44 57 -83 4 -25 0 -37
-18 -52 -12 -11 -19 -15 -16 -9 7 11 -48 44 -72 44 -14 0 -15 -77 -1 -85 8 -5
7 -11 -1 -21 -9 -11 -6 -16 15 -24 27 -10 36 -30 13 -30 -12 0 -36 -29 -49
-62 -5 -13 4 -22 42 -39 27 -12 47 -26 44 -31 -8 -12 29 -55 43 -51 7 3 18 -5
25 -16 8 -13 23 -21 40 -21 37 0 58 -10 58 -27 0 -12 11 -14 58 -10 31 2 68 8
81 12 21 7 23 6 19 -16 -4 -23 -1 -25 31 -25 20 0 51 -3 70 -8 62 -13 191 -12
200 2 9 14 35 17 66 8 33 -11 55 41 55 130 0 66 -2 74 -19 74 -13 0 -20 10
-25 32 -7 36 -22 28 -27 -13 -2 -15 4 -33 14 -44 10 -10 16 -24 13 -32 -3 -8
-6 -23 -6 -33 0 -21 -103 -90 -135 -90 -11 0 -51 7 -90 16 -38 10 -87 21 -107
26 -45 10 -102 61 -75 66 9 2 30 -6 46 -17 16 -12 33 -20 38 -19 10 2 48 -9
88 -27 19 -9 43 -11 64 -7 l34 7 -59 32 c-32 17 -79 34 -103 38 -63 10 -137
45 -120 56 8 5 9 9 3 9 -12 0 -117 88 -123 103 -2 5 -13 21 -25 34 -25 29 -44
77 -45 114 -1 15 -8 43 -16 63 -9 20 -13 42 -9 48 4 6 -1 8 -15 3 -15 -4 -21
-2 -21 8 0 12 -42 49 -52 46 -2 0 -9 -3 -15 -6z m317 -465 c0 -6 -3 -8 -7 -5
-3 4 -12 2 -18 -3 -9 -8 -14 -6 -19 5 -4 11 1 15 19 15 14 0 25 -5 25 -12z"/>
<path d="M6955 3630 c-8 -25 -3 -33 17 -28 11 2 12 8 2 27 l-12 23 -7 -22z"/>
<path d="M6920 3564 c-14 -7 -33 -14 -42 -14 -10 0 -18 -6 -18 -14 0 -8 -6
-17 -12 -20 -7 -3 -3 -3 10 0 17 4 22 1 22 -14 0 -11 -3 -22 -7 -25 -5 -2 -3
-2 4 -1 6 2 17 -4 24 -12 10 -13 10 -17 0 -24 -10 -6 -8 -10 8 -15 28 -8 62
22 40 36 -12 7 -12 9 1 10 8 1 18 1 23 0 4 0 7 11 7 27 0 18 3 23 9 14 6 -11
10 -10 15 5 5 13 -1 24 -21 40 -32 26 -30 26 -63 7z"/>
<path d="M7895 3450 c-16 -11 -43 -20 -58 -20 -16 0 -26 -4 -22 -10 15 -24
185 2 185 28 0 11 -3 12 -14 3 -10 -9 -15 -8 -20 4 -8 21 -35 19 -71 -5z"/>
<path d="M6796 3373 c9 -38 14 -42 14 -10 0 14 -5 29 -10 32 -7 4 -8 -3 -4
-22z"/>
<path d="M6830 3301 c-17 -7 -27 -61 -11 -61 6 0 11 -9 11 -20 0 -20 1 -20 25
-3 19 14 24 24 19 43 -7 32 -25 49 -44 41z"/>
<path d="M7260 3055 c0 -8 5 -15 10 -15 6 0 10 7 10 15 0 8 -4 15 -10 15 -5 0
-10 -7 -10 -15z"/>
<path d="M1 2502 c-1 -33 3 -51 9 -47 12 7 12 52 0 80 -6 15 -9 6 -9 -33z"/>
<path d="M7760 900 c0 -5 5 -10 11 -10 5 0 7 5 4 10 -3 6 -8 10 -11 10 -2 0
-4 -4 -4 -10z"/>
<path d="M4780 892 c0 -4 12 -9 28 -10 21 -1 23 0 12 8 -18 12 -40 13 -40 2z"/>
<path d="M7813 893 c15 -2 37 -2 50 0 12 2 0 4 -28 4 -27 0 -38 -2 -22 -4z"/>
<path d="M6938 843 c7 -3 16 -2 19 1 4 3 -2 6 -13 5 -11 0 -14 -3 -6 -6z"/>
<path d="M6287 803 c-14 -13 -6 -33 12 -33 14 0 19 6 18 20 -1 20 -17 27 -30
13z"/>
<path d="M6560 770 c0 -5 7 -10 15 -10 8 0 15 5 15 10 0 6 -7 10 -15 10 -8 0
-15 -4 -15 -10z"/>
<path d="M975 760 l-60 -6 45 -7 c25 -4 59 -8 75 -10 l30 -3 -25 -11 c-14 -6
-38 -14 -54 -18 -40 -8 -21 -23 33 -27 28 -1 46 2 49 10 2 7 16 12 30 13 l27
1 -24 7 c-31 8 -40 31 -12 31 12 0 21 5 21 10 0 6 -11 10 -24 10 -13 0 -30 1
-38 3 -7 2 -40 1 -73 -3z"/>
<path d="M6478 759 c-2 -7 -40 -13 -93 -16 -50 -3 -95 -9 -102 -14 -8 -7 -16
-3 -26 12 -13 17 -22 20 -49 15 -18 -4 -87 -11 -153 -16 -66 -6 -131 -14 -145
-18 -14 -5 -71 -8 -127 -8 -55 1 -99 -2 -97 -5 2 -3 -31 -5 -74 -3 -53 3 -72
1 -62 -6 11 -8 4 -10 -25 -8 -22 1 -60 -1 -85 -4 -25 -3 -35 -3 -22 -1 12 2
22 9 22 15 0 14 -62 2 -72 -15 -6 -9 -8 -9 -8 1 0 16 -42 12 -47 -4 -4 -12
401 -12 430 1 10 4 36 5 57 1 24 -4 40 -2 40 4 0 6 26 7 68 4 128 -10 250 -9
245 1 -3 6 0 4 8 -2 7 -7 18 -13 24 -13 5 0 3 5 -5 11 -11 7 -2 8 30 3 62 -10
312 -6 388 6 35 6 68 7 73 4 5 -3 15 -2 22 3 8 5 -2 10 -28 15 -37 6 -37 6 5
2 25 -3 79 -7 120 -9 41 -3 76 -9 78 -14 2 -6 13 -6 29 0 23 9 56 8 88 -2 6
-2 27 3 47 10 27 9 43 9 57 2 25 -14 41 -14 21 -1 -12 8 -11 10 8 10 12 0 21
-5 20 -12 -2 -7 4 -13 12 -13 8 0 14 6 13 13 -2 6 4 12 12 12 16 0 16 -20 0
-32 -5 -4 2 -8 16 -8 27 0 54 21 42 33 -12 12 -22 7 -17 -8 4 -8 2 -15 -4 -15
-5 0 -12 9 -15 19 -3 13 -16 21 -38 24 -19 2 1 2 44 0 52 -4 77 -2 77 6 0 6
-19 12 -42 13 -104 5 -124 5 -139 -3 -9 -4 -55 -2 -104 6 -48 8 -92 12 -98 8
-6 -3 -67 -8 -136 -9 -69 -2 -147 -5 -172 -8 -29 -3 -56 1 -74 10 -33 17 -32
17 -37 3z m-115 -56 c-7 -2 -19 -2 -25 0 -7 3 -2 5 12 5 14 0 19 -2 13 -5z"/>
<path d="M1248 753 c6 -2 18 -2 25 0 6 3 1 5 -13 5 -14 0 -19 -2 -12 -5z"/>
<path d="M7342 743 c2 -10 -3 -23 -11 -29 -12 -9 -12 -12 2 -17 10 -4 18 1 22
14 4 11 15 19 28 18 21 0 21 -1 2 -9 -14 -5 -3 -8 36 -7 30 0 60 -3 66 -6 6
-4 14 -1 16 5 4 10 6 10 6 1 1 -9 9 -9 31 -2 16 6 35 9 42 6 7 -3 3 -6 -10 -6
-28 -1 -19 -21 9 -21 11 0 19 7 19 16 0 13 5 12 26 -5 15 -12 34 -21 43 -20
12 0 12 2 -3 8 -15 6 -17 9 -7 16 20 12 84 14 98 3 6 -5 40 -8 75 -8 34 1 75
1 90 0 16 0 38 8 49 19 l22 20 -28 7 c-15 4 -48 2 -74 -4 -25 -6 -48 -7 -51
-2 -3 4 -106 7 -230 7 -124 -1 -236 3 -248 7 -20 7 -23 5 -20 -11z m588 -33
c-19 -13 -30 -13 -30 0 0 6 10 10 23 10 18 0 19 -2 7 -10z"/>
<path d="M7290 730 c-11 -21 -4 -25 24 -14 9 3 16 12 16 20 0 21 -28 17 -40
-6z"/>
<path d="M843 733 c9 -2 23 -2 30 0 6 3 -1 5 -18 5 -16 0 -22 -2 -12 -5z"/>
<path d="M1179 717 l-24 -22 29 -3 c37 -5 63 29 32 41 -8 3 -24 -4 -37 -16z"/>
<path d="M698 713 c7 -3 16 -2 19 1 4 3 -2 6 -13 5 -11 0 -14 -3 -6 -6z"/>
<path d="M5275 690 c-3 -5 -1 -10 4 -10 6 0 11 5 11 10 0 6 -2 10 -4 10 -3 0
-8 -4 -11 -10z"/>
<path d="M5180 679 c-22 -6 -20 -7 13 -8 38 -1 47 3 25 11 -7 3 -24 1 -38 -3z"/>
<path d="M3585 649 c-16 -6 -14 -8 13 -8 33 -1 41 4 20 12 -7 2 -22 1 -33 -4z"/>
<path d="M3060 634 c0 -9 7 -14 17 -12 25 5 28 28 4 28 -12 0 -21 -6 -21 -16z"/>
<path d="M323 616 c-22 -8 -47 -10 -54 -5 -7 4 -18 5 -24 1 -5 -3 -22 -5 -37
-3 -19 2 -28 -2 -28 -12 0 -9 -9 -12 -30 -9 -18 3 -30 0 -30 -7 0 -6 8 -11 18
-11 24 0 54 -63 46 -95 -9 -37 -41 -32 -61 9 -9 19 -24 37 -35 39 -12 3 -16
11 -12 21 5 12 0 16 -19 16 -14 0 -34 3 -44 6 -15 5 -15 4 -3 -5 10 -7 11 -11
3 -11 -10 0 -13 -62 -13 -275 l0 -275 4000 0 4000 0 -2 282 c-3 244 -5 283
-18 283 -8 0 -48 -5 -88 -12 -45 -7 -82 -9 -96 -3 -14 5 -27 5 -32 0 -5 -5
-72 -6 -149 -2 -126 6 -140 9 -137 24 2 10 -3 18 -11 18 -8 0 -29 3 -46 6 -24
5 -31 3 -31 -10 0 -9 7 -16 15 -16 28 0 15 -28 -15 -35 -32 -7 -39 -19 -15
-29 8 -3 15 -15 15 -26 0 -28 -33 -23 -39 5 -5 29 -19 35 -91 36 -56 1 -61 2
-35 10 17 5 45 11 62 12 36 4 57 17 27 17 -16 1 -15 3 6 15 l25 14 -33 1 c-20
0 -31 -4 -27 -10 3 -6 2 -10 -4 -10 -5 0 -13 5 -16 10 -3 6 -22 8 -41 6 -31
-4 -34 -2 -29 15 4 13 2 19 -9 19 -9 0 -16 -7 -16 -15 0 -9 -9 -15 -23 -15
-13 0 -28 -5 -35 -12 -7 -7 -16 -8 -24 -2 -19 13 -184 10 -201 -4 -8 -7 -27
-9 -44 -6 -17 3 -41 1 -54 -6 -23 -13 -24 -12 -6 7 22 25 22 32 -2 30 -11 0
-17 -5 -15 -9 3 -4 -6 -8 -20 -8 -21 0 -26 -5 -26 -25 0 -14 5 -25 12 -25 8 0
8 -3 3 -9 -6 -6 -30 -7 -55 -4 -34 5 -40 8 -25 14 14 5 3 8 -32 8 -30 1 -53 6
-53 12 0 5 12 9 28 8 56 -4 93 1 86 12 -4 6 -20 8 -39 5 -22 -5 -35 -2 -39 6
-5 10 -7 10 -12 1 -3 -7 -12 -13 -20 -13 -9 0 -14 -11 -14 -30 0 -28 -2 -30
-40 -30 -53 0 -120 21 -120 38 0 10 12 13 44 11 25 -2 42 0 38 5 -3 5 5 7 16
4 12 -4 22 -2 22 4 0 6 -16 7 -40 3 -26 -4 -40 -3 -40 4 0 6 -9 11 -20 11 -11
0 -20 -4 -20 -9 0 -5 -9 -7 -20 -4 -11 3 -20 1 -20 -5 0 -6 -10 -12 -22 -14
-21 -4 -20 -6 12 -21 l35 -17 -54 6 c-30 3 -62 9 -72 14 -12 7 -19 5 -23 -5
-6 -17 -56 -21 -56 -5 0 6 7 10 16 10 14 0 14 2 0 15 -19 19 -36 19 -36 0 0
-8 -3 -15 -7 -16 -5 0 -46 -5 -93 -11 -77 -9 -139 -11 -210 -8 -14 1 -158 -1
-320 -4 -163 -2 -337 0 -390 5 -52 5 -99 10 -105 10 -5 -1 -44 -3 -85 -5 -160
-10 -246 -9 -267 2 -14 8 -79 11 -185 11 -89 -1 -246 1 -348 5 -214 7 -620 8
-930 2 -436 -8 -836 -9 -867 -2 -22 5 -33 4 -33 -3 0 -6 -5 -11 -11 -11 -6 0
-9 7 -5 15 8 21 -21 19 -32 -1 -8 -14 -22 -16 -93 -11 -46 4 -123 7 -171 7
-52 0 -88 4 -88 10 0 6 8 10 17 10 14 0 14 3 5 12 -9 9 -15 9 -20 2 -9 -13 -5
-13 -277 -15 -126 0 -245 2 -264 6 -26 6 -32 5 -26 -5 6 -9 3 -9 -14 -1 -22
12 -71 5 -83 -13 -5 -8 -8 -7 -8 2 0 6 -7 12 -15 12 -8 0 -15 -4 -15 -10 0 -5
-11 -10 -25 -10 -14 0 -25 5 -25 10 0 6 -6 10 -14 10 -8 0 -16 10 -18 23 -3
19 -11 23 -56 27 -30 3 -56 2 -59 -3 -2 -4 -10 -4 -16 1 -7 5 -33 12 -59 15
-51 7 -73 -7 -45 -28 24 -17 23 -49 -1 -36 -12 6 -28 5 -51 -5 -35 -15 -76
-10 -66 7 7 10 -7 17 -42 22 -11 2 -28 9 -37 16 -21 17 -116 5 -136 -19 -19
-21 -85 -15 -103 10 -6 9 -25 20 -42 24 -16 4 -37 9 -45 11 -8 2 -34 -2 -57
-9z m664 -31 c8 -9 13 -19 10 -22 -6 -5 -37 21 -37 31 0 10 11 6 27 -9z m-577
-25 c10 -6 2 -7 -25 -3 -49 7 -58 13 -19 13 16 0 36 -5 44 -10z m100 -4 c0 -3
-4 -8 -10 -11 -5 -3 -10 -1 -10 4 0 6 5 11 10 11 6 0 10 -2 10 -4z m6327 -2
c-3 -3 -12 -4 -19 -1 -8 3 -5 6 6 6 11 1 17 -2 13 -5z m283 -24 c0 -5 -4 -10
-10 -10 -5 0 -10 5 -10 10 0 6 5 10 10 10 6 0 10 -4 10 -10z m-490 -16 c0 -2
-12 -4 -27 -4 -21 0 -24 3 -14 9 13 8 41 5 41 -5z m-3928 -14 c27 0 47 -4 44
-8 -3 -5 -38 -7 -78 -6 -94 3 -90 2 -82 15 4 6 19 9 36 5 17 -3 53 -6 80 -6z
m338 -5 c0 -16 -17 -19 -44 -9 -22 9 -10 24 20 24 15 0 24 -6 24 -15z m90 3
c0 -4 -12 -8 -26 -8 -14 0 -23 4 -19 9 6 11 45 10 45 -1z m850 -2 c74 -3 198
-8 275 -12 77 -4 183 -7 235 -6 52 1 102 -3 110 -8 16 -10 16 -10 -37 -15 -26
-2 -230 -4 -313 -2 -19 0 -62 0 -95 -1 -33 -2 -130 2 -215 8 -146 10 -337 18
-512 19 -71 1 -103 14 -60 24 18 4 374 0 612 -7z m-1124 -5 c-3 -5 -21 -9 -40
-8 -45 1 -35 17 10 17 19 0 33 -4 30 -9z m2004 -29 c69 -12 54 -14 -86 -14
-112 0 -140 5 -128 23 7 11 124 6 214 -9z m763 6 c38 1 57 -3 57 -11 0 -9 2
-9 8 0 9 14 235 14 248 0 4 -4 -2 -7 -14 -7 -12 0 -22 -5 -22 -12 0 -8 -46 -9
-177 -3 -98 4 -252 9 -343 11 -203 4 -327 14 -310 24 7 4 121 5 254 3 132 -3
267 -5 299 -5z m427 0 c14 -9 32 -10 72 -1 29 6 58 8 63 4 6 -4 37 -6 70 -4
33 2 75 4 93 3 37 -1 88 -18 79 -26 -11 -11 -222 -10 -241 0 -14 8 -20 8 -23
-1 -3 -9 -30 -13 -84 -13 -70 0 -79 2 -79 18 0 33 17 40 50 20z m-5960 -48 c0
-5 -9 -10 -19 -10 -11 0 -23 5 -26 10 -4 6 5 10 19 10 14 0 26 -4 26 -10z m78
-15 c-3 -3 -9 2 -12 12 -6 14 -5 15 5 6 7 -7 10 -15 7 -18z"/>
<path d="M7523 620 c-25 -10 -26 -15 -13 -45 8 -19 9 -19 9 2 1 21 4 22 71 16
47 -4 70 -2 70 5 0 18 -18 24 -40 12 -13 -7 -20 -7 -20 -1 0 6 -6 8 -14 5 -8
-3 -17 -1 -21 5 -7 13 -12 13 -42 1z"/>
<path d="M0 610 c0 -5 5 -10 10 -10 6 0 10 5 10 10 0 6 -4 10 -10 10 -5 0 -10
-4 -10 -10z"/>
<path d="M518 613 c-40 -6 -34 -23 7 -23 24 0 35 5 35 15 0 8 -3 14 -7 14 -5
-1 -20 -4 -35 -6z"/>
<path d="M740 606 c0 -9 7 -12 20 -9 11 3 20 9 20 14 0 5 -9 9 -20 9 -11 0
-20 -6 -20 -14z"/>
<path d="M7894 610 c22 -15 106 -21 106 -9 0 5 -17 9 -37 9 -21 0 -49 3 -63 6
-22 5 -23 4 -6 -6z"/>
<path d="M2020 585 c-7 -8 -23 -15 -37 -15 -14 0 -21 -4 -18 -10 6 -10 115
-15 115 -5 0 8 -34 45 -41 45 -4 0 -12 -7 -19 -15z"/>
<path d="M6224 580 c0 -15 7 -20 27 -20 22 0 26 4 22 20 -3 12 -14 20 -27 20
-15 0 -22 -6 -22 -20z"/>
<path d="M7758 593 c7 -3 16 -2 19 1 4 3 -2 6 -13 5 -11 0 -14 -3 -6 -6z"/>
</g>
</svg>
